<svg xmlns="http://www.w3.org/2000/svg" width="520" height="170">
    <rect width="100%" height="100%" fill="#000000"/>

    <rect x="20" y="20" width="60" height="60" rx="5" fill="#262626"/>
    <rect x="20" y="90" width="60" height="60" rx="5" fill="#2E3436"/>

    <rect x="90" y="20" width="60" height="60" rx="5" fill="#75507b"/>
    <rect x="90" y="90" width="60" height="60" rx="5" fill="#ad7fa8"/>

    <rect x="160" y="20" width="60" height="60" rx="5" fill="#3465a4"/>
    <rect x="160" y="90" width="60" height="60" rx="5" fill="#729fcf"/>

    <rect x="230" y="20" width="60" height="60" rx="5" fill="#06989a"/>
    <rect x="230" y="90" width="60" height="60" rx="5" fill="#34e2e2"/>

    <rect x="300" y="20" width="60" height="60" rx="5" fill="#4e9a06"/>
    <rect x="300" y="90" width="60" height="60" rx="5" fill="#8ae234"/>

    <rect x="370" y="20" width="60" height="60" rx="5" fill="#fce94f"/>
    <rect x="370" y="90" width="60" height="60" rx="5" fill="#c4a000"/>

    <rect x="440" y="20" width="60" height="60" rx="5" fill="#ef2929"/>
    <rect x="440" y="90" width="60" height="60" rx="5" fill="#CC0000"/>
</svg>
